<svg viewBox="0 0 100 100" xmlns="http://www.w3.org/2000/svg">
  <path
    fill="currentColor"
    d="M30,15 
       C30,15 25,15 25,20 
       L25,80 
       C25,85 30,85 30,85 
       L35,85
       C55,85 70,75 70,58 
       C70,40 50,38 35,42 
       L35,42
       L35,15 Z 
       M35,48 
       C60,45 80,50 80,65 
       C80,80 60,88 35,80 
       L35,65
       C55,68 65,65 65,56
       C65,48 50,45 35,48 Z
       M70,58
       C73,56 75,55 78,55
       C82,55 85,58 85,62
       C85,66 82,69 78,69
       C75,69 73,67 72,65
       C78,62 80,58 78,55
       "
  />
</svg>